<?xml version="1.0" encoding="utf-8"?>
<!-- Generator: Adobe Illustrator 16.0.0, SVG Export Plug-In . SVG Version: 6.00 Build 0)  -->
<!DOCTYPE svg PUBLIC "-//W3C//DTD SVG 1.1//EN" "http://www.w3.org/Graphics/SVG/1.1/DTD/svg11.dtd">
<svg version="1.1" id="レイヤー_1" xmlns="http://www.w3.org/2000/svg" xmlns:xlink="http://www.w3.org/1999/xlink" x="0px"
	 y="0px" width="259px" height="68px" viewBox="0 0 259 68" enable-background="new 0 0 259 68" xml:space="preserve">
<g>
	<path fill="#E6E6E6" d="M77.885,44.439c2.82,2.689,5.969,4.277,8.624,5.105c0.446,0.16,0.517,0.391,0.517,0.619
		c0,0.414-0.329,0.645-0.564,0.645c-0.071,0-0.141-0.023-0.211-0.045c-1.763-0.645-3.455-1.541-5.076-2.691
		c-1.598-1.127-2.95-2.275-4.148-3.518v6.738c0,0.16-0.047,0.299-0.117,0.391c-0.094,0.092-0.212,0.115-0.4,0.115
		s-0.329-0.023-0.399-0.115c-0.094-0.092-0.141-0.23-0.141-0.391v-6.715c-1.292,1.402-2.736,2.598-4.217,3.633
		s-3.148,1.885-4.981,2.553c-0.094,0.021-0.188,0.045-0.259,0.045c-0.54,0-0.611-0.506-0.611-0.574c0-0.414,0.211-0.482,0.399-0.553
		c1.927-0.598,3.572-1.355,4.935-2.275c1.316-0.875,2.538-1.863,3.642-2.967l-5.64-0.049c-1.504,0-2.162-0.529-2.162-2.092v-4.094
		c0-1.564,0.658-2.094,2.162-2.094l6.731,0.072V34l-9.551-0.023c-0.165,0-0.282-0.046-0.376-0.115
		c-0.094-0.092-0.141-0.207-0.141-0.368c0-0.161,0.047-0.299,0.141-0.368c0.094-0.092,0.211-0.115,0.376-0.115l9.551,0.023v-1.472
		c0-0.138,0.071-0.253,0.165-0.322c0.071-0.092,0.211-0.138,0.376-0.138s0.282,0.046,0.376,0.138
		c0.094,0.069,0.141,0.184,0.141,0.322v1.472l9.506-0.023c0.165,0,0.282,0.023,0.376,0.115c0.094,0.069,0.141,0.207,0.141,0.368
		c0,0.161-0.047,0.276-0.141,0.368c-0.094,0.069-0.211,0.115-0.376,0.115L77.026,34v2.184l6.569-0.023
		c1.668,0,2.162,0.691,2.162,2.094v4.094c0,0.85-0.047,2.092-2.138,2.092H77.885z M75.969,37.127l-6.731-0.072
		c-1.011,0-1.128,0.645-1.128,1.104v1.473l7.859,0.072V37.127z M75.969,40.623l-7.859-0.072v1.816c0,0.781,0.376,1.104,1.128,1.104
		l6.731,0.072V40.623z M84.747,38.207c0-0.781-0.376-1.104-1.128-1.104l-6.593,0.023v2.576l7.721-0.023V38.207z M84.747,40.6
		l-7.721,0.023v2.92l6.593-0.023c0.799,0,1.128-0.367,1.128-1.104V40.6z"/>
	<path fill="#E6E6E6" d="M90.393,34c-0.353,0-0.494-0.092-0.494-0.483c0-0.414,0.141-0.483,0.494-0.483h9.541v-1.126
		c0-0.161,0.047-0.299,0.164-0.391c0.094-0.092,0.212-0.138,0.376-0.138c0.165,0,0.282,0.046,0.376,0.138
		c0.118,0.092,0.165,0.23,0.165,0.391v1.126h9.682c0.305,0.069,0.353,0.092,0.353,0.483c0,0.253-0.094,0.483-0.47,0.483H90.393z
		 M89.828,49.649c0-0.207,0.094-0.368,0.306-0.483c2.608-1.586,4.277-3.242,5.452-4.714c0.141-0.184,0.305-0.276,0.494-0.276
		c0.399,0,0.563,0.254,0.563,0.506c0,0.875-5.357,5.635-6.227,5.635c-0.094,0-0.188-0.047-0.282-0.092
		c-0.188-0.115-0.282-0.276-0.306-0.506V49.649z M101.125,43.326v6.438c0,1.68-0.752,1.909-1.856,1.909
		c-0.799,0-1.598-0.115-2.444-0.345c-0.047,0-0.094-0.023-0.118-0.047c-0.211-0.068-0.353-0.16-0.446-0.299
		c-0.047-0.092-0.071-0.184-0.071-0.299c0-0.045,0-0.068,0-0.115c0.023-0.184,0.094-0.299,0.212-0.367
		c0.094-0.068,0.188-0.092,0.282-0.092s0.188,0.023,0.306,0.068c0.846,0.299,1.551,0.461,2.068,0.461
		c0.846,0,0.963-0.276,0.963-0.828v-6.484h-6.292c-0.705,0-1.998-0.092-1.998-2.023V38.52c0-1.793,1.151-2.047,1.998-2.047h13.441
		c1.904,0,1.998,1.334,1.998,2.047v2.783c0,1.932-1.292,2.023-1.998,2.023H101.125z M108.086,38.336
		c0-0.207-0.047-0.896-0.869-0.896H93.682c-0.823,0-0.87,0.689-0.87,0.896v3.127c0,0.645,0.446,0.92,0.87,0.92h13.535
		c0.258,0,0.47-0.092,0.634-0.275c0.165-0.162,0.235-0.369,0.235-0.645V38.336z M110.366,50.5c-0.141,0-0.282-0.068-0.4-0.184
		c-2.514-2.529-2.82-2.828-5.475-4.898c-0.141-0.115-0.235-0.229-0.235-0.391c0-0.046,0.023-0.092,0.023-0.139
		c0.023-0.252,0.188-0.391,0.447-0.459c0.023,0,0.07-0.023,0.094-0.023c0.282,0,0.611,0.253,2.984,2.3
		C110.977,49.42,111,49.58,111,49.833c0,0.069,0,0.115-0.023,0.185c-0.071,0.229-0.235,0.391-0.47,0.459
		C110.459,50.477,110.413,50.5,110.366,50.5z"/>
	<path fill="#E6E6E6" d="M136.186,50.662c-0.07,0.275-0.281,0.367-0.494,0.367h-17.365c-1.81,0-2.327-1.012-2.327-2.322
		l0.072-13.997c0-1.518,0.61-2.701,2.255-2.701h16.802c0.141,0,0.258,0.046,0.352,0.115c0.094,0.092,0.141,0.207,0.141,0.368
		c0,0.161-0.047,0.276-0.141,0.368c-0.094,0.069-0.211,0.115-0.352,0.115h-16.873c-0.869,0-1.175,0.483-1.175,1.38v14.329
		c0,1.196,0.682,1.357,1.175,1.357h17.436c0.094,0,0.494,0.022,0.494,0.506V50.662z M135.527,47.971c0,0.047,0,0.529-0.518,0.529
		c-0.094,0-0.164-0.023-0.258-0.046c-4.465-1.38-6.109-3.403-7.613-5.841c-0.963,3.196-3.219,4.967-7.426,6.002
		c-0.07,0.022-0.118,0.022-0.188,0.022c-0.117,0-0.211-0.022-0.306-0.092c-0.164-0.092-0.235-0.276-0.235-0.506v-0.092
		c0-0.253,0.399-0.345,0.423-0.345c5.475-1.288,6.461-3.748,6.932-5.771h-7.426c-0.094-0.023-0.188-0.07-0.235-0.115
		c-0.094-0.069-0.118-0.185-0.118-0.346c0-0.16,0.023-0.299,0.118-0.367c0.07-0.069,0.188-0.115,0.353-0.115h7.472
		c0.07-0.529,0.094-1.104,0.094-1.725l-0.004-2.229h-4.77c-1.339,2.645-1.969,2.872-2.228,2.872c-0.047,0-0.07-0.022-0.117-0.022
		c-0.376-0.092-0.423-0.299-0.423-0.483c0-0.138,0.047-0.253,0.164-0.391c1.455-1.787,1.73-1.806,2.585-4.714
		c0.071-0.184,0.141-0.299,0.259-0.322c0.023-0.023,0.023-0.023,0.047-0.023c0.07-0.023,0.117-0.023,0.188-0.023
		c0.141,0,0.258,0.046,0.376,0.138c0.07,0.069,0.118,0.161,0.118,0.276c0,0.161-0.287,1.221-0.545,1.772h12.173
		c0.141,0,0.258,0.046,0.352,0.115c0.094,0.092,0.117,0.207,0.117,0.345v0.114c0,0.047-0.094,0.346-0.469,0.346h-6.791l0.004,2.205
		c0,0.621-0.047,1.196-0.119,1.748h7.967c0.258,0.068,0.352,0.23,0.352,0.482v0.115c-0.07,0.275-0.258,0.346-0.469,0.346h-7.803
		c1.623,2.414,3.549,4.645,7.52,5.587c0.283,0.069,0.447,0.229,0.447,0.483V47.971z"/>
	<path fill="#E6E6E6" d="M140.434,46.937c-0.234-0.023-0.377-0.138-0.471-0.3c-0.023-0.068-0.047-0.137-0.047-0.207
		c0-0.137,0.047-0.275,0.164-0.459c1.48-2.529,3.057-5.634,3.76-8.049h-3.031c-0.211,0-0.398-0.045-0.492-0.138
		c-0.117-0.092-0.164-0.185-0.164-0.345c0-0.161,0.047-0.253,0.164-0.346c0.094-0.092,0.281-0.137,0.492-0.137h3.221v-4.071
		c-0.965,0.138-1.928,0.253-2.938,0.345h-0.07c-0.236,0-0.377-0.092-0.471-0.253c-0.07-0.092-0.094-0.184-0.094-0.276
		c0-0.092,0.023-0.161,0.047-0.229c0.07-0.138,0.211-0.23,0.4-0.253c0.023-0.023,0.07-0.023,0.117-0.023
		c2.772-0.113,5-0.516,6.438-0.874c0.094-0.023,0.189-0.023,0.26-0.023c0.117,0,0.211,0.023,0.281,0.069
		c0.164,0.092,0.258,0.253,0.258,0.437v0.069c0,0.299-0.35,0.471-3.287,0.908v4.208L148,36.957c0.471,0,0.682,0.207,0.682,0.482
		c0,0.322-0.281,0.482-0.682,0.482l-2.982,0.034c1.176,1.702,2.631,3.99,3.217,5.048c0.094,0.161,0.143,0.299,0.143,0.438
		c0,0.092-0.025,0.184-0.072,0.252c-0.094,0.139-0.234,0.23-0.398,0.254c-0.023,0.022-0.047,0.022-0.094,0.022
		c-0.188,0-0.354-0.161-0.494-0.46c-0.775-1.793-1.596-3.047-2.348-4.196v11.98c0,0.138-0.047,0.252-0.141,0.345
		c-0.07,0.092-0.188,0.114-0.354,0.114c-0.164,0-0.236-0.057-0.33-0.148c-0.07-0.093-0.117-0.207-0.117-0.345
		c0,0,0-9.106,0.023-10.532c0.023-0.874,0.023-1.587,0.023-1.587c-0.33,1.035-0.775,2.438-1.246,3.541
		c-1.715,4.025-2.021,4.255-2.35,4.255H140.434z M158.059,45.529l-10.434,1.913h-0.096c-0.328,0-0.516-0.253-0.516-0.506
		c0-0.229,0.141-0.46,0.445-0.507c0,0,10.6-1.958,10.6-1.935V31.641c0-0.299,0.072-0.617,0.447-0.617
		c0.377,0,0.494,0.276,0.494,0.621v12.647c0-0.022,1.619-0.392,1.619-0.392h0.094c0.305,0,0.471,0.254,0.471,0.529
		c0,0.207-0.119,0.438-0.4,0.482L159,45.326v5.795c0,0.254-0.047,0.598-0.518,0.598c-0.188,0-0.213-0.049-0.283-0.188
		c-0.094-0.115-0.141-0.253-0.141-0.414V45.529z M154.791,43.303c-0.141,0-0.305-0.092-0.447-0.207
		c-1.385-1.241-2.771-2.346-4.746-3.564c-0.141-0.068-0.188-0.206-0.188-0.391c0.023-0.207,0.141-0.367,0.398-0.437
		c0.023,0,0.047-0.022,0.072-0.022c0.305,0,2.303,1.355,2.654,1.609c0.822,0.574,1.668,1.241,2.537,2
		c0.166,0.139,0.236,0.276,0.236,0.438c0,0.068,0,0.115-0.023,0.184c-0.094,0.207-0.236,0.346-0.424,0.391H154.791z M150.162,32.22
		c0.518,0,3.219,1.885,4.982,3.495c0.141,0.138,0.211,0.299,0.211,0.482c0,0.023,0,0.047,0,0.069
		c-0.023,0.276-0.283,0.483-0.494,0.483c-0.141,0-0.281-0.092-0.422-0.23c-0.564-0.529-2.232-2.069-4.535-3.426
		c-0.166-0.092-0.236-0.253-0.236-0.46s0.117-0.368,0.377-0.414H150.162z"/>
	<path fill="#E6E6E6" d="M164.928,36.864c-0.117,0-0.211-0.046-0.328-0.114c-0.119-0.047-0.166-0.162-0.166-0.346v-0.115
		c0.023-0.068,0.094-0.321,0.494-0.321h3.947V32.38c0-0.161,0.047-0.299,0.117-0.437c0.096-0.115,0.213-0.161,0.4-0.161
		c0.375,0,0.518,0.23,0.518,0.598v3.587h5.027v-4.323c0-0.253,0.07-0.621,0.541-0.621c0.4,0,0.541,0.322,0.541,0.621v0.943h7.236
		c0.283,0,0.471,0.046,0.588,0.115c0.094,0.069,0.141,0.184,0.141,0.368v0.115c-0.047,0.184-0.211,0.345-0.729,0.345h-7.236v2.438
		h9.07c0.117,0,0.234,0.022,0.328,0.092c0.117,0.069,0.164,0.185,0.164,0.345c0,0.115-0.023,0.207-0.07,0.276
		c-0.023,0.022-0.047,0.046-0.094,0.069c-0.094,0.068-0.211,0.114-0.328,0.114H164.928z M168.477,51.145
		c-2.303,0-2.562-1.195-2.562-2.553V37.83c0-0.275,0.26-0.414,0.541-0.414c0.258,0,0.518,0.139,0.518,0.414v10.693
		c0,1.426,0.562,1.701,1.762,1.701h12.549c1.197,0,1.762-0.275,1.762-1.701V37.83c0-0.275,0.258-0.414,0.541-0.414
		c0.258,0,0.414,0.214,0.414,0.489v10.762c0,1.886-0.625,2.478-2.459,2.478H168.477z M181.424,47.764
		c0,0.553-0.471,0.553-0.471,0.553c-0.328,0-2.938-1.794-5.428-5.174v5.633c0,0.322-0.164,0.575-0.494,0.575
		c-0.188,0-0.305-0.046-0.375-0.161c-0.094-0.115-0.117-0.252-0.117-0.414v-5.748c-2.303,3.84-5.381,5.289-5.547,5.289
		c-0.117,0-0.211-0.023-0.305-0.092c-0.141-0.093-0.211-0.207-0.211-0.392c0-0.022,0-0.046,0-0.069c0-0.207,0.117-0.391,0.305-0.482
		c1.762-0.943,3.689-2.322,4.912-4.254h-5.053c-0.281,0-0.518-0.161-0.518-0.438c0-0.16,0.07-0.275,0.164-0.321
		c0.096-0.069,0.213-0.115,0.354-0.115h5.898v-3.817c0-0.506,0.305-0.574,0.492-0.574c0.166,0,0.307,0.068,0.377,0.16
		c0.07,0.115,0.117,0.254,0.117,0.414v3.817h5.711c0.281,0,0.516,0.161,0.516,0.437v0.115c-0.023,0.115-0.117,0.322-0.516,0.322
		h-4.982c1.08,1.311,2.514,2.852,4.865,4.208c0.188,0.114,0.305,0.276,0.305,0.483V47.764z M169.744,38.704
		c0.023-0.185,0.143-0.299,0.307-0.321c0.047-0.023,0.07-0.023,0.094-0.023c0.141,0,0.281,0.046,0.375,0.138
		c1.316,1.288,1.527,1.54,2.092,2.415c0.047,0.092,0.07,0.184,0.07,0.252c0,0.139-0.023,0.529-0.516,0.529
		c-0.119,0-0.236-0.068-0.33-0.207c-0.234-0.367-0.541-0.781-0.916-1.242c-0.328-0.391-0.682-0.758-1.057-1.126
		c-0.096-0.069-0.119-0.161-0.119-0.3V38.704z M177.264,41.233c0-0.161,0.07-0.276,0.189-0.368c0.939-0.805,1.41-1.379,1.949-2.299
		c0.07-0.139,0.188-0.207,0.354-0.207h0.07c0.047,0,0.07,0,0.117,0.023c0,0,0.281,0.068,0.281,0.413c0,0.368-1.291,2.093-2.139,2.76
		c-0.117,0.114-0.234,0.161-0.352,0.161c-0.094,0-0.4-0.069-0.447-0.346c-0.023-0.022-0.023-0.045-0.023-0.068V41.233z"/>
	<path fill="#E6E6E6" d="M189.373,46.937c-0.234-0.023-0.375-0.138-0.469-0.3c-0.023-0.068-0.047-0.137-0.047-0.207
		c0-0.137,0.047-0.275,0.164-0.459c1.48-2.529,3.055-5.634,3.76-8.049h-3.031c-0.211,0-0.4-0.045-0.494-0.138
		c-0.117-0.092-0.164-0.185-0.164-0.345c0-0.161,0.047-0.253,0.164-0.346c0.094-0.092,0.283-0.137,0.494-0.137h3.219v-4.071
		c-0.963,0.138-1.926,0.253-2.938,0.345h-0.07c-0.234,0-0.375-0.092-0.469-0.253c-0.07-0.092-0.096-0.184-0.096-0.276
		c0-0.092,0.025-0.161,0.049-0.229c0.07-0.138,0.211-0.23,0.398-0.253c0.023-0.023,0.07-0.023,0.117-0.023
		c2.82-0.115,5.053-0.529,6.439-0.874c0.094-0.023,0.188-0.023,0.258-0.023c0.117,0,0.211,0.023,0.283,0.069
		c0.164,0.092,0.258,0.253,0.258,0.437v0.069c0,0.299-0.307,0.437-3.242,0.874v4.208h2.984c0.469,0,0.68,0.207,0.68,0.482
		c0,0.322-0.281,0.482-0.68,0.482h-2.938c1.174,1.702,2.584,4.024,3.172,5.082c0.094,0.161,0.141,0.299,0.141,0.438
		c0,0.092-0.023,0.184-0.07,0.252c-0.094,0.139-0.234,0.23-0.4,0.254c-0.023,0.022-0.047,0.022-0.094,0.022
		c-0.188,0-0.352-0.161-0.492-0.46c-0.775-1.793-1.551-3.081-2.303-4.23v11.98c0,0.138-0.049,0.252-0.143,0.345
		c-0.07,0.092-0.188,0.114-0.352,0.114s-0.281-0.022-0.377-0.114c-0.07-0.093-0.117-0.207-0.117-0.345c0,0,0-9.106,0.023-10.532
		c0.023-0.874,0.023-1.587,0.023-1.587c-0.328,1.035-0.775,2.438-1.244,3.541c-1.717,4.025-2.021,4.255-2.35,4.255H189.373z
		 M207.025,45.563l-10.461,1.879h-0.094c-0.33,0-0.518-0.253-0.518-0.506c0-0.229,0.141-0.46,0.447-0.507
		c0,0,10.625-1.924,10.625-1.9V31.675c0-0.299,0.104-0.651,0.48-0.651c0.375,0,0.494,0.276,0.494,0.621v12.647
		c0-0.022,1.559-0.392,1.559-0.392h0.094c0.307,0,0.471,0.254,0.471,0.529c0,0.207-0.117,0.438-0.398,0.482L208,45.326v5.795
		c0,0.254-0.047,0.598-0.518,0.598c-0.188,0-0.244-0.015-0.316-0.153c-0.094-0.115-0.141-0.253-0.141-0.414V45.563z M203.732,43.303
		c-0.143,0-0.307-0.092-0.447-0.207c-1.387-1.241-2.773-2.346-4.746-3.564c-0.143-0.068-0.189-0.206-0.189-0.391
		c0.023-0.207,0.143-0.367,0.4-0.437c0.023,0,0.047-0.022,0.07-0.022c0.305,0,2.303,1.355,2.656,1.609
		c0.822,0.574,1.668,1.241,2.537,2c0.164,0.139,0.234,0.276,0.234,0.438c0,0.068,0,0.115-0.023,0.184
		c-0.094,0.207-0.234,0.346-0.422,0.391H203.732z M199.102,32.22c0.518,0,3.221,1.885,4.982,3.495
		c0.141,0.138,0.211,0.299,0.211,0.482c0,0.023,0,0.047,0,0.069c-0.023,0.276-0.281,0.483-0.492,0.483
		c-0.143,0-0.283-0.092-0.424-0.23c-0.564-0.529-2.232-2.069-4.535-3.426c-0.164-0.092-0.234-0.253-0.234-0.46
		s0.117-0.368,0.375-0.414H199.102z"/>
	<path fill="#E6E6E6" d="M224.219,38c0.869,5.242,3.947,10.025,9.164,12.463c0.258,0.115,0.377,0.322,0.377,0.598
		c-0.047,0.575-0.588,0.713-0.635,0.713c-0.141,0-0.307-0.068-0.471-0.16c-5.639-3.335-8.178-7.796-9.023-11.936
		c-1.926,9.13-9.658,12.096-9.869,12.096c-0.352,0-0.635-0.414-0.635-0.713c0-0.16,0.047-0.367,0.354-0.506
		c5.381-2.438,8.857-7.014,9.328-12.555h-8.836c-0.234,0-0.398-0.047-0.516-0.139c-0.119-0.068-0.166-0.207-0.166-0.391
		c0-0.414,0.307-0.529,0.682-0.529l8.99,0.021v-4.989c0-0.184,0.047-0.322,0.141-0.414c0.094-0.092,0.152-0.159,0.363-0.159
		c0.188,0,0.328,0.046,0.422,0.138c0.096,0.092,0.143,0.23,0.143,0.414v4.989h8.881c0.4,0,0.682,0.115,0.682,0.529
		c0,0.184-0.047,0.322-0.164,0.391c-0.117,0.092-0.281,0.139-0.518,0.139H224.219z"/>
	<path fill="#E6E6E6" d="M250.598,46c0.729,0.713,1.533,1.557,1.533,2.914c0,2.207-2.092,2.713-4.324,2.713
		c-1.574,0-3.477-0.252-5.732-0.758c-0.26-0.07-0.4-0.185-0.471-0.369c0-0.045-0.023-0.114-0.023-0.16
		c0-0.161,0.07-0.322,0.211-0.46c0.094-0.069,0.189-0.115,0.307-0.115c0.07,0,0.164,0.022,0.234,0.046
		c2.021,0.575,3.76,0.874,5.264,0.874h0.328c2.305-0.069,3.104-0.506,3.104-1.909c0-0.713-0.076-1.28-1.863-2.775h-11.725
		c-0.166,0-0.307-0.046-0.424-0.114c-0.094-0.069-0.164-0.185-0.164-0.369c0-0.184,0.07-0.299,0.164-0.367
		c0.117-0.068,0.258-0.115,0.424-0.115h10.338c-0.164-0.115-0.375-0.23-0.562-0.345c-0.283-0.161-0.371-0.467-0.371-0.766
		c0-0.253,0.211-0.482,0.635-0.666c1.902-0.806,3.596-1.633,4.957-2.415c0.143-0.069,0.213-0.161,0.213-0.253
		c0-0.023-0.023-0.047-0.023-0.069c-0.023-0.138-0.141-0.206-0.307-0.206h-10.434c-0.422,0-0.492-0.07-0.562-0.139
		c-0.07-0.092-0.117-0.207-0.117-0.322s0.047-0.229,0.117-0.322c0.07-0.114,0.258-0.16,0.562-0.16h9.895
		c1.832,0,2.02,0.781,2.02,1.265c0,0.391-0.188,0.69-0.611,0.92c-1.01,0.575-2.467,1.265-4.346,2.001
		c-0.471,0.184-0.705,0.344-0.705,0.413c0,0.093,0.064,0.306,0.299,0.443c0.33,0.207,0.635,0.414,0.939,0.621h8.037
		c0.164,0,0.307,0.047,0.424,0.115c0.094,0.068,0.164,0.184,0.164,0.367c0,0.185-0.07,0.3-0.164,0.369
		c-0.117,0.068-0.26,0.114-0.424,0.114H250.598z M256.338,37.531c-0.023-0.299-0.094-0.506-0.213-0.644
		c-0.164-0.138-0.445-0.207-0.799-0.207h-15.697c-0.328,0-0.656,0.069-0.799,0.229c-0.164,0.139-0.234,0.438-0.234,0.874v1.747
		c0,0.207-0.023,0.369-0.07,0.461c-0.023,0.045-0.047,0.068-0.094,0.092c-0.094,0.092-0.234,0.138-0.377,0.138
		c-0.141,0-0.281-0.046-0.375-0.138c-0.117-0.069-0.164-0.253-0.164-0.553v-2.115c0-1.356,0.846-1.701,1.738-1.701h12.219
		c0.611-0.782,1.928-2.438,2.75-4.323c0.094-0.184,0.234-0.299,0.422-0.322c0.047,0,0.096-0.023,0.143-0.023
		c0.188,0,0.352,0.092,0.469,0.253c0.047,0.092,0.094,0.184,0.094,0.276c0,0.299-1.48,2.805-2.584,4.139h2.844
		c1.221,0,1.809,0.46,1.809,1.932v1.908c0,0.115,0,0.621-0.541,0.621c-0.539,0-0.539-0.506-0.539-0.621V37.531z M242.191,35.255
		c-0.023,0-0.023,0-0.047,0c-0.164,0-0.307-0.115-0.447-0.345c-0.939-1.518-1.48-2.162-2.02-2.76
		c-0.119-0.115-0.166-0.207-0.166-0.322c0-0.092,0.07-0.552,0.564-0.552c0.117,0,0.234,0.092,0.377,0.23
		c0.352,0.414,0.68,0.828,0.986,1.242c1.127,1.518,1.293,1.816,1.293,2.023c0,0.069-0.023,0.138-0.072,0.207
		c-0.07,0.138-0.211,0.23-0.375,0.253C242.262,35.255,242.238,35.255,242.191,35.255z M247.949,35.232
		c-0.189,0-0.33-0.139-0.447-0.392c-0.846-1.563-1.363-2.322-1.809-2.828c-0.119-0.138-0.166-0.276-0.166-0.391
		c0-0.069,0.023-0.138,0.047-0.207c0.094-0.184,0.283-0.299,0.564-0.299c0.164,0,0.307,0.092,0.447,0.253
		c0.822,1.104,1.973,2.875,1.973,3.312c0,0.39-0.445,0.529-0.562,0.552H247.949z"/>
</g>
<g>
	<path fill="#E6E6E6" d="M67.283,25.011c-0.877,0-1.449-0.377-1.449-1.482v-7.943c0-1.391,0.944-1.482,1.449-1.482h8.187
		c1.276,0,1.462,0.78,1.462,1.482v7.943c0,0.702-0.186,1.482-1.462,1.482H67.283z M76.32,15.404c0-0.39-0.266-0.754-0.864-0.754
		h-8.147c-0.651,0-0.864,0.351-0.864,0.754v8.307c0,0.299,0.173,0.754,0.864,0.754h8.147c0.664,0,0.864-0.364,0.864-0.754V15.404z
		 M67.734,22.762c-0.133,0-0.226-0.026-0.266-0.078c-0.053-0.052-0.08-0.104-0.08-0.182c0-0.117,0.066-0.26,0.345-0.26h3.296v-2.704
		h-2.751c-0.12,0-0.199-0.026-0.252-0.065c-0.053-0.052-0.066-0.104-0.066-0.182c0-0.078,0.013-0.143,0.066-0.182
		c0.053-0.052,0.133-0.078,0.252-0.078h2.751v-2.275h-3.11c-0.12,0-0.2-0.026-0.253-0.078c-0.04-0.052-0.066-0.117-0.066-0.182
		s0.027-0.117,0.066-0.169c0.053-0.052,0.133-0.078,0.253-0.078h6.805c0.119,0,0.199,0,0.239,0.078
		c0.053,0.052,0.067,0.104,0.067,0.169s-0.014,0.13-0.067,0.182c-0.04,0.052-0.12,0.078-0.239,0.078h-3.097v2.275h2.698
		c0.093,0,0.332,0.013,0.332,0.26c0,0.078-0.026,0.13-0.066,0.182c-0.053,0.039-0.146,0.065-0.266,0.065h-2.698v2.704h3.455
		c0.292,0,0.346,0.143,0.346,0.26c0,0.078-0.026,0.13-0.08,0.182c-0.04,0.052-0.133,0.078-0.266,0.078H67.734z M74.101,21.67
		c-0.08,0-0.146-0.026-0.212-0.091c-0.146-0.156-0.306-0.325-0.505-0.507c-0.159-0.156-0.358-0.325-0.545-0.507
		c-0.04-0.039-0.093-0.13-0.093-0.195v-0.039c0.04-0.143,0.16-0.169,0.252-0.169c0.173,0,1.342,1.066,1.342,1.261
		c0,0.013,0,0.039-0.013,0.065c-0.013,0.091-0.08,0.156-0.186,0.182H74.101z"/>
	<path fill="#E6E6E6" d="M78.94,24.816c-0.133,0-0.213-0.026-0.266-0.078c-0.067-0.052-0.093-0.13-0.093-0.208
		c0-0.091,0.026-0.182,0.093-0.234c0.053-0.052,0.133-0.091,0.266-0.091h6.924c0.997-2.925,1.396-5.227,1.674-6.891
		c0.014-0.13,0.173-0.312,0.359-0.312c0.066,0,0.146,0.026,0.213,0.091c0.08,0.065,0.133,0.143,0.133,0.234
		c0,0.026-0.013,0.052-0.013,0.078c-0.665,3.549-1.422,5.837-1.741,6.799h3.31c0.146,0,0.345,0.052,0.345,0.325
		c0,0.078-0.026,0.286-0.345,0.286H78.94z M79.14,15.924c-0.146,0-0.239-0.026-0.292-0.078c-0.066-0.052-0.093-0.143-0.093-0.221
		c0-0.091,0.026-0.156,0.093-0.208c0.053-0.052,0.146-0.078,0.292-0.078h4.851v-1.196c0-0.208,0.04-0.429,0.319-0.429
		c0.2,0,0.319,0.065,0.319,0.429v1.196h4.997c0.04,0,0.08,0,0.12,0.013c0.066,0.013,0.12,0.026,0.159,0.065
		c0.066,0.052,0.093,0.117,0.093,0.208c0,0.078-0.027,0.169-0.093,0.221c-0.053,0.052-0.146,0.078-0.279,0.078H79.14z M82.25,23.048
		c-0.026,0-0.08,0-0.12-0.013c-0.12-0.026-0.186-0.117-0.212-0.286c-0.173-1.131-0.532-3.016-1.183-5.174
		c-0.026-0.078-0.026-0.143-0.026-0.195c0-0.091,0.026-0.156,0.08-0.208c0.066-0.052,0.133-0.078,0.226-0.078
		c0.04,0,0.093,0.013,0.146,0.026c0.08,0.039,0.16,0.13,0.2,0.286c0.518,1.716,1.209,4.901,1.209,5.317
		c0,0.104-0.027,0.182-0.093,0.247C82.409,23.022,82.343,23.048,82.25,23.048z"/>
	<path fill="#E6E6E6" d="M97.801,17.575c0.492,2.964,2.233,5.668,5.184,7.046c0.146,0.065,0.212,0.182,0.212,0.338
		c-0.026,0.325-0.332,0.403-0.359,0.403c-0.08,0-0.173-0.039-0.266-0.091c-3.19-1.885-4.625-4.407-5.104-6.747
		c-1.09,5.161-5.462,6.838-5.582,6.838c-0.199,0-0.359-0.234-0.359-0.403c0-0.091,0.027-0.208,0.199-0.286
		c3.044-1.378,5.011-3.965,5.276-7.098h-4.997c-0.133,0-0.226-0.026-0.292-0.078c-0.066-0.039-0.093-0.117-0.093-0.221
		c0-0.234,0.172-0.299,0.385-0.299h5.037v-2.821c0-0.104,0.026-0.182,0.08-0.234c0.053-0.052,0.133-0.078,0.252-0.078
		c0.106,0,0.186,0.026,0.239,0.078c0.053,0.052,0.08,0.13,0.08,0.234v2.821h5.023c0.226,0,0.386,0.065,0.386,0.299
		c0,0.104-0.027,0.182-0.093,0.221c-0.066,0.052-0.16,0.078-0.292,0.078H97.801z"/>
	<path fill="#E6E6E6" d="M112.17,22.125c0.412,0.403,0.837,0.936,0.837,1.703c0,1.248-1.183,1.534-2.446,1.534
		c-0.89,0-1.967-0.143-3.243-0.429c-0.146-0.039-0.226-0.104-0.266-0.208c0-0.026-0.014-0.065-0.014-0.091
		c0-0.091,0.04-0.182,0.12-0.26c0.053-0.039,0.106-0.065,0.173-0.065c0.04,0,0.093,0.013,0.133,0.026
		c1.143,0.325,2.126,0.494,2.977,0.494h0.187c1.302-0.039,1.754-0.286,1.754-1.079c0-0.403-0.013-0.78-1.023-1.625h-6.632
		c-0.093,0-0.172-0.026-0.239-0.065c-0.053-0.039-0.093-0.104-0.093-0.208s0.04-0.169,0.093-0.208
		c0.067-0.039,0.146-0.065,0.239-0.065h5.848c-0.093-0.065-0.213-0.13-0.319-0.195c-0.159-0.091-0.239-0.208-0.239-0.377
		c0-0.143,0.12-0.273,0.359-0.377c1.077-0.455,2.034-0.923,2.805-1.365c0.08-0.039,0.119-0.091,0.119-0.143
		c0-0.013-0.013-0.026-0.013-0.039c-0.013-0.078-0.08-0.117-0.173-0.117h-5.901c-0.239,0-0.279-0.039-0.319-0.078
		c-0.04-0.052-0.066-0.117-0.066-0.182s0.026-0.13,0.066-0.182c0.04-0.065,0.146-0.091,0.319-0.091h5.595
		c1.037,0,1.143,0.442,1.143,0.715c0,0.221-0.106,0.39-0.345,0.52c-0.572,0.325-1.396,0.715-2.459,1.131
		c-0.266,0.104-0.399,0.195-0.399,0.234c0,0.052,0.067,0.117,0.2,0.195c0.186,0.117,0.359,0.234,0.532,0.351h4.545
		c0.093,0,0.173,0.026,0.239,0.065c0.053,0.039,0.093,0.104,0.093,0.208s-0.04,0.169-0.093,0.208
		c-0.066,0.039-0.146,0.065-0.239,0.065H112.17z M115.387,17.393c-0.013-0.169-0.053-0.286-0.12-0.364
		c-0.093-0.078-0.252-0.117-0.452-0.117h-8.878c-0.186,0-0.372,0.039-0.452,0.13c-0.093,0.078-0.133,0.247-0.133,0.494v0.988
		c0,0.117-0.014,0.208-0.04,0.26c-0.013,0.026-0.026,0.039-0.053,0.052c-0.053,0.052-0.133,0.078-0.212,0.078
		c-0.08,0-0.16-0.026-0.213-0.078c-0.066-0.039-0.093-0.143-0.093-0.312v-1.196c0-0.767,0.479-0.962,0.983-0.962h6.911
		c0.345-0.442,1.09-1.378,1.555-2.444c0.053-0.104,0.133-0.169,0.239-0.182c0.027,0,0.053-0.013,0.08-0.013
		c0.106,0,0.2,0.052,0.266,0.143c0.026,0.052,0.053,0.104,0.053,0.156c0,0.169-0.837,1.586-1.462,2.34h1.608
		c0.691,0,1.023,0.26,1.023,1.092v1.079c0,0.065,0,0.351-0.306,0.351s-0.306-0.286-0.306-0.351V17.393z M107.386,16.105
		c-0.013,0-0.013,0-0.026,0c-0.093,0-0.173-0.065-0.252-0.195c-0.532-0.858-0.837-1.222-1.143-1.56
		c-0.066-0.065-0.093-0.117-0.093-0.182c0-0.052,0.04-0.312,0.319-0.312c0.067,0,0.133,0.052,0.213,0.13
		c0.199,0.234,0.385,0.468,0.558,0.702c0.638,0.858,0.731,1.027,0.731,1.144c0,0.039-0.013,0.078-0.04,0.117
		c-0.04,0.078-0.12,0.13-0.213,0.143C107.426,16.105,107.413,16.105,107.386,16.105z M110.642,16.093
		c-0.106,0-0.186-0.078-0.252-0.221c-0.479-0.884-0.771-1.313-1.023-1.599c-0.066-0.078-0.093-0.156-0.093-0.221
		c0-0.039,0.013-0.078,0.027-0.117c0.053-0.104,0.159-0.169,0.319-0.169c0.093,0,0.173,0.052,0.252,0.143
		c0.465,0.624,1.116,1.625,1.116,1.872c0,0.221-0.252,0.299-0.319,0.312H110.642z"/>
	<path fill="#E6E6E6" d="M117.409,24.803c0-0.065,0.027-0.143,0.066-0.208c0.745-1.105,1.396-2.353,2.06-3.991
		c0.04-0.104,0.106-0.169,0.186-0.182c0.013-0.013,0.027-0.013,0.04-0.013c0.026,0,0.066-0.013,0.093-0.013
		c0.053,0,0.279,0.013,0.279,0.286c0,0.156-0.771,2.067-2.073,4.238c-0.093,0.143-0.199,0.208-0.346,0.208
		C117.635,25.115,117.409,25.076,117.409,24.803z M117.422,17.354c0-0.156,0.146-0.273,0.279-0.273c0.066,0,0.372,0.117,1.156,0.533
		c1.116,0.611,1.263,0.702,1.263,0.91c0,0.013,0,0.026,0,0.039c0,0.091-0.053,0.169-0.16,0.234c-0.04,0.026-0.08,0.026-0.12,0.026
		c-0.066,0-0.133-0.013-0.212-0.065c-0.333-0.221-0.705-0.455-1.09-0.663c-0.333-0.182-0.651-0.338-0.957-0.468
		c-0.106-0.039-0.16-0.117-0.16-0.234V17.354z M117.701,14.233c0-0.221,0.186-0.273,0.279-0.273c0.053,0,0.093,0,0.146,0.026
		c1.608,0.754,2.193,1.053,2.193,1.339c0,0.039-0.013,0.078-0.026,0.117c-0.027,0.065-0.08,0.117-0.16,0.156
		c-0.04,0.013-0.08,0.026-0.12,0.026c-0.053,0-0.106-0.013-0.16-0.052c-0.584-0.377-1.276-0.793-1.98-1.092
		C117.754,14.441,117.701,14.351,117.701,14.233z M124.439,19.486c-0.758,1.976-1.475,3.263-2.485,4.81
		c2.206-0.195,4.293-0.494,6.007-0.832c-0.571-1.183-1.183-2.106-1.435-2.496c-0.04-0.065-0.066-0.13-0.066-0.195
		c0-0.091,0.053-0.26,0.332-0.26c0.093,0,0.173,0.052,0.239,0.156c1.661,2.665,2.312,4.303,2.312,4.42c0,0.091,0,0.26-0.346,0.286
		c-0.12,0-0.213-0.065-0.279-0.221c-0.173-0.416-0.346-0.819-0.519-1.183c-4.08,0.754-7.535,1.001-7.828,1.027h-0.066
		c-0.04,0-0.08,0-0.12-0.013c-0.066-0.013-0.12-0.052-0.16-0.117c-0.026-0.052-0.04-0.104-0.04-0.156
		c0-0.052,0.013-0.091,0.026-0.143c0.053-0.104,0.146-0.169,0.279-0.169c0.332-0.013,0.665-0.039,0.997-0.052
		c1.289-2.054,1.967-3.393,2.525-4.862h-3.229c-0.066,0-0.12-0.013-0.172-0.052c-0.04-0.052-0.067-0.13-0.067-0.221
		c0-0.234,0.133-0.286,0.239-0.286h3.907v-3.042h-3.375c-0.066,0-0.12-0.026-0.173-0.065c-0.04-0.039-0.066-0.117-0.066-0.221
		s0.027-0.169,0.066-0.208c0.053-0.039,0.106-0.065,0.173-0.065h3.375v-1.313c0-0.091,0.014-0.156,0.066-0.208
		c0.054-0.065,0.12-0.091,0.239-0.091c0.106,0,0.187,0.026,0.227,0.091c0.053,0.052,0.079,0.117,0.079,0.208v1.313h3.575
		c0.066,0,0.12,0.026,0.173,0.065c0.04,0.039,0.066,0.104,0.066,0.208s-0.026,0.182-0.066,0.221
		c-0.053,0.039-0.106,0.065-0.173,0.065h-3.575v3.042h4.014c0.066,0,0.134,0.013,0.173,0.065c0.054,0.039,0.066,0.117,0.066,0.221
		c0,0.234-0.133,0.273-0.239,0.273H124.439z"/>
	<path fill="#E6E6E6" d="M142.356,25.089c-0.04,0.143-0.12,0.234-0.239,0.299c-0.04,0.013-0.08,0.026-0.12,0.026
		c-0.093,0-0.199-0.039-0.318-0.13c-3.39-2.47-4.771-5.564-5.184-7.892c-0.226,1.131-0.598,2.314-1.13,3.406
		c-1.422,2.912-4.279,4.602-4.638,4.602c-0.173,0-0.319-0.13-0.319-0.377v-0.052c0-0.104,0.093-0.195,0.253-0.286
		c0.292-0.169,0.571-0.338,0.837-0.52c1.436-0.975,2.512-2.158,3.229-3.549c0.851-1.677,1.303-3.328,1.303-4.927v-1.638
		c0.013-0.117,0.04-0.195,0.093-0.247c0.066-0.052,0.12-0.091,0.226-0.091c0.054,0,0.359,0,0.359,0.403v1.755
		c0.306,1.872,0.864,3.497,1.675,4.875c0.97,1.664,2.219,2.977,3.761,3.952c0.146,0.104,0.213,0.208,0.213,0.325V25.089z"/>
</g>
<g id="パス_のコピー_2">
	<g>
		<path fill="#E6E6E6" d="M28.499,6C12.786,6,0,18.56,0,34c0,15.439,12.786,28,28.499,28c15.717,0,28.503-12.561,28.503-28
			C57.002,18.56,44.216,6,28.499,6z M28.499,61.543C13.042,61.543,0.467,49.187,0.467,34c0-15.186,12.575-27.541,28.032-27.541
			c15.459,0,28.034,12.355,28.034,27.541C56.533,49.187,43.958,61.543,28.499,61.543z M28.499,15.329
			C18.021,15.329,9.495,23.704,9.495,34c0,10.295,8.525,18.672,19.004,18.672c10.481,0,19.007-8.377,19.007-18.672
			C47.506,23.704,38.98,15.329,28.499,15.329z M28.499,52.212C18.28,52.212,9.963,44.044,9.963,34
			c0-10.043,8.317-18.213,18.536-18.213c10.223,0,18.539,8.17,18.539,18.213C47.038,44.044,38.722,52.212,28.499,52.212z
			 M21.927,53.389h-6.125v0.697h2.137v4.897h1.423v-4.897h2.409L21.927,53.389z M39.731,56.671h-0.002
			c-0.006,0.342-0.018,0.65-0.135,0.898l0.003-0.001c-0.229,0.474-0.721,0.805-1.291,0.805c-0.571,0-1.062-0.331-1.29-0.805v0.001
			c-0.114-0.248-0.128-0.557-0.134-0.898v-3.282h-1.426v2.664l0.002-0.002c0,0.427,0.052,0.814,0.141,1.093
			c0.371,1.12,1.441,1.93,2.707,1.93s2.335-0.81,2.707-1.93c0.087-0.278,0.142-0.666,0.142-1.093v-2.662h-1.424V56.671z
			 M33.004,53.486c-0.511-0.114-0.965-0.098-1.152-0.098h-4.051l0.155,0.697h0.937l-0.646,2.899l-0.8-3.597H26.2l-1.337,3.816
			l-1.335-3.816h-1.245l-1.246,5.595h1.246l0.761-3.42l1.198,3.42h1.245l1.198-3.42l0.762,3.42h4.398
			c0.182-0.001,0.643,0.017,1.158-0.099h-0.001c1.209-0.322,2.099-1.408,2.099-2.699C35.102,54.896,34.212,53.812,33.004,53.486z
			 M32.235,58.173c-0.271,0.078-0.88,0.113-1.112,0.113h-1.92l0.936-4.2h1.034c0.268,0.004,0.82,0.042,1.071,0.116
			c0.836,0.289,1.432,1.066,1.432,1.983C33.676,57.106,33.074,57.886,32.235,58.173z M11.055,46.991l-2.098,1.618l-0.439-0.55
			l-0.475,0.369l1.337,1.668l0.474-0.365l-0.428-0.535l2.099-1.617L11.055,46.991z M9.045,47.097
			c0.402-0.234,0.667-0.569,0.797-1.013c0.131-0.443,0.071-0.871-0.176-1.287C9.43,44.4,9.087,44.146,8.637,44.031
			c-0.452-0.114-0.883-0.052-1.294,0.183c-0.415,0.239-0.683,0.583-0.806,1.032c-0.12,0.447-0.063,0.865,0.168,1.258
			c0.153,0.257,0.363,0.462,0.628,0.608c0.267,0.147,0.551,0.223,0.854,0.219C8.49,47.329,8.774,47.249,9.045,47.097z M7.234,46.211
			c-0.152-0.256-0.185-0.523-0.104-0.808c0.08-0.283,0.256-0.502,0.523-0.657c0.27-0.153,0.548-0.197,0.837-0.127
			c0.288,0.07,0.507,0.228,0.655,0.479c0.131,0.22,0.177,0.456,0.137,0.71c-0.052,0.322-0.232,0.574-0.543,0.752
			c-0.28,0.161-0.562,0.206-0.848,0.137C7.605,46.628,7.387,46.466,7.234,46.211z M8.278,42.251l-1.357,0.522l0.922-1.625
			L7.52,40.338l-1.146,2.021l-1.854-0.73l0.327,0.822l1.436,0.564l-1.051,0.405l0.275,0.696l3.049-1.171L8.278,42.251z
			 M7.223,39.065l-0.16-0.71l-1.382,0.302l-2.064-0.708l0.173,0.766l1.299,0.445l-0.981,0.947l0.175,0.765l1.56-1.505L7.223,39.065z
			 M4.292,37.214c0.272,0.127,0.563,0.182,0.876,0.158c0.466-0.033,0.856-0.221,1.17-0.562c0.314-0.342,0.456-0.752,0.418-1.231
			c-0.032-0.46-0.225-0.835-0.58-1.134c-0.354-0.296-0.767-0.43-1.242-0.396c-0.48,0.036-0.876,0.228-1.186,0.576
			c-0.311,0.35-0.448,0.749-0.415,1.201c0.023,0.3,0.12,0.574,0.291,0.82C3.797,36.895,4.02,37.084,4.292,37.214z M4.209,35.025
			c0.198-0.218,0.453-0.342,0.764-0.362c0.312-0.023,0.582,0.06,0.809,0.248c0.227,0.186,0.354,0.424,0.373,0.713
			c0.02,0.255-0.044,0.486-0.194,0.695c-0.191,0.269-0.467,0.416-0.826,0.442c-0.325,0.022-0.597-0.059-0.823-0.245
			c-0.224-0.186-0.347-0.428-0.369-0.724C3.919,35.5,4.009,35.245,4.209,35.025z M6.709,31.463l-1.949-0.8l2.186-0.414l0.125-0.64
			l-1.874-1.184L7.306,28.4l0.135-0.694l-3.338,0.042l-0.137,0.691l2.072,1.305l-2.415,0.458l-0.135,0.689l3.084,1.268L6.709,31.463
			z M8.435,25.325L7.87,25.116l-0.501,1.307l-0.811-0.3l0.501-1.307l-0.564-0.209l-0.503,1.307l-0.555-0.207L5.938,24.4l-0.565-0.21
			L4.61,26.179l3.062,1.134L8.435,25.325z M9.176,23.88c0.266-0.452,0.428-0.785,0.488-0.995c0.06-0.208,0.074-0.425,0.047-0.652
			C9.682,22.007,9.6,21.799,9.47,21.605c-0.133-0.192-0.31-0.349-0.527-0.472c-0.311-0.174-0.625-0.246-0.951-0.214
			c-0.321,0.032-0.605,0.143-0.853,0.333c-0.244,0.189-0.517,0.539-0.812,1.049l-0.458,0.79l2.843,1.591L9.176,23.88z M6.774,22.728
			L6.908,22.5c0.241-0.419,0.493-0.68,0.753-0.786c0.287-0.116,0.582-0.091,0.885,0.078c0.197,0.111,0.337,0.246,0.42,0.408
			c0.083,0.165,0.111,0.332,0.087,0.504c-0.023,0.17-0.125,0.407-0.304,0.715l-0.18,0.312L6.774,22.728z M11.11,20.94l-2.631-1.912
			l-0.44,0.586l2.633,1.91L11.11,20.94z M10.185,19.415c0.368,0.336,0.781,0.496,1.238,0.478c0.456-0.016,0.857-0.208,1.203-0.576
			c0.186-0.198,0.319-0.403,0.396-0.62c0.081-0.216,0.115-0.49,0.106-0.82l-0.612,0.007c0.01,0.247-0.014,0.449-0.064,0.599
			c-0.051,0.154-0.141,0.295-0.263,0.426c-0.143,0.15-0.311,0.258-0.497,0.319c-0.188,0.06-0.376,0.069-0.563,0.023
			c-0.189-0.044-0.361-0.139-0.521-0.284c-0.229-0.21-0.348-0.46-0.359-0.757c-0.013-0.295,0.089-0.557,0.302-0.78
			c0.253-0.267,0.592-0.403,1.021-0.407l-0.009-0.59c-0.275-0.012-0.541,0.035-0.794,0.14c-0.255,0.104-0.473,0.253-0.656,0.448
			c-0.215,0.226-0.359,0.491-0.434,0.793c-0.073,0.3-0.067,0.588,0.018,0.862C9.783,18.951,9.945,19.197,10.185,19.415z
			 M14.23,17.661l-0.16-0.714l1.268-0.963l0.652,0.336l0.614-0.463l-3.191-1.639l-0.599,0.455l0.802,3.454L14.23,17.661z
			 M14.753,15.679l-0.835,0.636l-0.27-1.194L14.753,15.679z M18.635,14.773l-0.3-0.517l-0.965,0.541l-1.32-2.278l-0.643,0.359
			l1.618,2.793L18.635,14.773z M20.614,13.364l1.219-0.41l0.402,0.421l0.586-0.197l-1.988-2.047l-0.567,0.192l-0.301,2.817
			l0.589-0.199L20.614,13.364z M20.775,11.873l0.693,0.704l-0.803,0.27L20.775,11.873z M23.73,13.001l-0.32-1.655l1.65,1.408
			l0.559-0.104l-0.489-2.525l-0.582,0.108l0.32,1.661l-1.654-1.411l-0.558,0.105l0.491,2.521L23.73,13.001z M26.963,12.547
			c0.421-0.021,0.719-0.056,0.888-0.104c0.169-0.05,0.324-0.131,0.466-0.247s0.252-0.26,0.327-0.432
			c0.075-0.168,0.107-0.352,0.099-0.55c-0.014-0.279-0.102-0.52-0.262-0.722c-0.158-0.199-0.355-0.341-0.592-0.422
			c-0.233-0.081-0.589-0.111-1.063-0.088l-0.735,0.033l0.124,2.565L26.963,12.547z M26.94,10.455
			c0.389-0.019,0.673,0.036,0.855,0.161c0.202,0.141,0.31,0.347,0.321,0.617c0.012,0.176-0.023,0.326-0.099,0.452
			c-0.075,0.124-0.178,0.214-0.304,0.271s-0.332,0.092-0.616,0.104l-0.289,0.014l-0.078-1.609L26.94,10.455z M32.536,12.779
			c0.223-0.019,0.436-0.079,0.642-0.186c0.203-0.105,0.373-0.254,0.511-0.442c0.138-0.188,0.228-0.405,0.268-0.649
			c0.056-0.347,0.012-0.661-0.131-0.948c-0.145-0.286-0.349-0.511-0.616-0.669c-0.266-0.16-0.694-0.287-1.283-0.379L31.013,9.36
			l-0.521,3.176l0.927,0.144C31.944,12.765,32.317,12.795,32.536,12.779z M31.674,10.066l0.266,0.042
			c0.483,0.077,0.82,0.214,1.014,0.419c0.212,0.224,0.291,0.503,0.234,0.839c-0.035,0.221-0.116,0.397-0.243,0.531
			c-0.125,0.133-0.274,0.219-0.445,0.256c-0.171,0.039-0.436,0.028-0.789-0.026l-0.363-0.058L31.674,10.066z M36.372,13.266
			l-1.354-0.419l0.26-0.812l1.357,0.419l0.18-0.567l-1.355-0.417l0.176-0.558l1.356,0.419l0.183-0.565l-2.064-0.638l-0.979,3.067
			l2.064,0.637L36.372,13.266z M37.508,14.381l0.959-1.887l0.574,2.639l0.629,0.307l1.459-2.875l-0.66-0.325l-0.962,1.895
			l-0.574-2.648l-0.626-0.306l-1.462,2.876L37.508,14.381z M40.562,16.055l0.629,0.422l1.511-2.162l0.586,0.397l0.343-0.49
			l-1.783-1.202l-0.341,0.488l0.569,0.386L40.562,16.055z M42.245,17.232l0.687-0.282l1.196,1.047l-0.222,0.694l0.578,0.508
			l1.06-3.384l-0.563-0.494l-3.313,1.403L42.245,17.232z M44.686,16.208l-0.361,1.169l-0.787-0.69L44.686,16.208z M45.938,20.962
			l0.462-0.382l-0.715-0.834l2.038-1.69L47.246,17.5l-2.501,2.074L45.938,20.962z M47.397,22.96c0.007,0.231,0.078,0.47,0.216,0.716
			c0.105,0.188,0.224,0.338,0.352,0.45c0.129,0.116,0.274,0.2,0.438,0.25c0.165,0.052,0.314,0.067,0.446,0.045
			s0.342-0.109,0.632-0.267l1.708-0.925l-0.358-0.639l-1.782,0.967c-0.191,0.104-0.331,0.158-0.417,0.163s-0.174-0.023-0.264-0.081
			c-0.092-0.062-0.169-0.149-0.233-0.264c-0.061-0.108-0.095-0.213-0.098-0.311c-0.006-0.1,0.017-0.184,0.063-0.25
			c0.047-0.069,0.151-0.148,0.311-0.236l1.852-1l-0.357-0.638l-1.706,0.923c-0.342,0.187-0.563,0.355-0.662,0.514
			C47.438,22.532,47.391,22.727,47.397,22.96z M48.881,26.106l2.027-0.697l-1.46,2.284l0.231,0.654l3.089-1.063l-0.244-0.688
			l-2.034,0.702l1.464-2.295l-0.229-0.645l-3.087,1.061L48.881,26.106z M49.967,29.776l3.198-0.682l-0.158-0.713l-3.197,0.685
			L49.967,29.776z M50.317,32.247l3.394,1.087l-0.073-0.742l-2.413-0.772l2.221-1.193l-0.072-0.738l-3.123,1.676L50.317,32.247z
			 M50.297,36.265l0.605,0.03l0.071-1.396l0.864,0.043l-0.072,1.396l0.604,0.029l0.072-1.396l0.593,0.03l-0.072,1.396l0.604,0.03
			l0.11-2.123l-3.269-0.162L50.297,36.265z M50.077,37.646l1.367,0.252l-0.018,0.094l-1.53,0.599l-0.147,0.772l1.604-0.626
			c0.028,0.253,0.101,0.451,0.22,0.598c0.12,0.145,0.286,0.236,0.494,0.274c0.201,0.038,0.386,0.015,0.554-0.066
			c0.166-0.081,0.301-0.204,0.396-0.372c0.098-0.164,0.186-0.46,0.267-0.878l0.147-0.769l-3.218-0.591L50.077,37.646z M51.995,38.24
			l0.041-0.232l0.661,0.121l-0.036,0.2c-0.038,0.196-0.075,0.328-0.111,0.397c-0.037,0.069-0.086,0.121-0.147,0.156
			c-0.06,0.034-0.123,0.045-0.194,0.033c-0.119-0.023-0.195-0.083-0.23-0.18C51.944,38.638,51.948,38.471,51.995,38.24z
			 M52.047,40.458c-0.148-0.047-0.314-0.039-0.503,0.032c-0.189,0.068-0.488,0.258-0.896,0.571
			c-0.214,0.163-0.367,0.265-0.458,0.304c-0.089,0.04-0.169,0.048-0.24,0.024c-0.078-0.024-0.132-0.089-0.163-0.188
			c-0.031-0.101-0.027-0.211,0.014-0.333c0.076-0.229,0.283-0.389,0.622-0.477l-0.109-0.688c-0.283,0.062-0.511,0.173-0.685,0.333
			c-0.176,0.156-0.307,0.367-0.396,0.628c-0.113,0.334-0.12,0.633-0.025,0.896c0.095,0.26,0.269,0.434,0.522,0.515
			c0.131,0.043,0.261,0.052,0.392,0.027c0.128-0.023,0.277-0.088,0.447-0.19c0.065-0.04,0.239-0.164,0.518-0.371
			c0.297-0.22,0.489-0.35,0.567-0.385c0.061-0.026,0.118-0.032,0.171-0.015c0.051,0.016,0.088,0.061,0.11,0.131
			c0.02,0.072,0.016,0.156-0.017,0.246c-0.06,0.19-0.231,0.342-0.508,0.452l0.217,0.649c0.256-0.134,0.449-0.269,0.577-0.412
			c0.128-0.143,0.222-0.307,0.284-0.489c0.096-0.284,0.099-0.549,0.013-0.793C52.414,40.685,52.261,40.527,52.047,40.458z
			 M48.389,43l2.992,1.294l0.301-0.664l-2.998-1.298L48.389,43z M50.224,45.26l-2.338-1.262l-0.366,0.653l2.34,1.263l-0.343,0.613
			l0.53,0.287l1.04-1.864l-0.53-0.286L50.224,45.26z M46.423,46.35l-0.436,0.588l1.144,0.819l0.821,1.989l0.471-0.636l-0.518-1.25
			l1.373,0.099l0.468-0.634l-2.179-0.155L46.423,46.35z M27.178,34c0,0.72,0.59,1.302,1.321,1.302c0.734,0,1.327-0.582,1.327-1.302
			c0-0.719-0.593-1.302-1.327-1.302C27.768,32.698,27.178,33.281,27.178,34z M33.385,35.375c-0.171,0-0.339,0.007-0.508,0.023
			c0.126,0.109,0.261,0.211,0.398,0.31C33.315,35.6,33.351,35.487,33.385,35.375z M39.001,30.649
			c-0.473-1.426-2.027-2.204-3.479-1.742c-1.307,0.418-2.078,1.701-1.874,2.993l-0.473,0.151c-0.191-0.441-0.444-0.852-0.751-1.219
			c-0.286,0.177-0.587,0.335-0.898,0.472c0.66,0.713,1.06,1.658,1.06,2.695c0,0.146-0.009,0.29-0.026,0.432
			c0.336-0.067,0.672-0.115,1.012-0.136c0.006-0.097,0.007-0.196,0.007-0.296c0-0.386-0.044-0.763-0.128-1.123l0.473-0.151
			c0.606,1.165,1.997,1.756,3.306,1.339C38.679,33.604,39.471,32.073,39.001,30.649z M31.628,30.068
			c-0.096-0.07-0.189-0.141-0.285-0.205c-0.054,0.158-0.1,0.316-0.138,0.479C31.351,30.258,31.492,30.168,31.628,30.068z
			 M26.649,29.354c0.08,0.322,0.142,0.651,0.179,0.984c0.51-0.225,1.076-0.352,1.671-0.352c0.598,0,1.165,0.127,1.676,0.352
			c0.036-0.333,0.098-0.662,0.182-0.984c-0.446-0.172-0.919-0.282-1.413-0.324v-0.487c1.313-0.207,2.318-1.326,2.318-2.676
			c0-1.5-1.236-2.712-2.763-2.712c-1.524,0-2.759,1.212-2.759,2.712c0,1.35,1.005,2.469,2.32,2.676v0.487
			C27.565,29.071,27.091,29.182,26.649,29.354z M25.373,30.068c0.139,0.1,0.277,0.189,0.423,0.273
			c-0.035-0.162-0.083-0.32-0.135-0.479C25.563,29.928,25.469,29.998,25.373,30.068z M23.619,35.375
			c0.033,0.112,0.067,0.225,0.109,0.333c0.137-0.099,0.268-0.2,0.397-0.31C23.958,35.382,23.788,35.375,23.619,35.375z
			 M25.252,31.203c-0.008-0.005-0.016-0.009-0.024-0.012c-0.069-0.034-0.138-0.068-0.206-0.104
			c-0.005-0.003-0.006-0.003-0.006-0.003c-0.149-0.081-0.295-0.162-0.438-0.251c-0.308,0.367-0.561,0.777-0.753,1.219L23.353,31.9
			c0.206-1.292-0.566-2.575-1.874-2.993c-1.448-0.462-3.007,0.318-3.477,1.742c-0.473,1.424,0.322,2.954,1.772,3.415
			c1.306,0.417,2.7-0.174,3.306-1.339l0.472,0.151c-0.083,0.36-0.129,0.737-0.129,1.123c0,0.1,0.004,0.199,0.009,0.296
			c0.338,0.021,0.675,0.068,1.01,0.136c-0.016-0.141-0.024-0.285-0.024-0.432c0-1.037,0.399-1.982,1.057-2.695
			C25.399,31.272,25.326,31.237,25.252,31.203z M27.221,38.828c0.126-0.308,0.273-0.608,0.444-0.899
			c-1.157-0.236-2.136-0.955-2.709-1.933c-0.228,0.248-0.476,0.481-0.734,0.691c0.263,0.403,0.583,0.766,0.948,1.079l-0.292,0.395
			c-1.188-0.591-2.671-0.265-3.478,0.826c-0.895,1.212-0.621,2.908,0.611,3.788c1.233,0.882,2.961,0.61,3.855-0.602
			c0.808-1.091,0.665-2.575-0.273-3.503l0.29-0.395C26.294,38.521,26.745,38.709,27.221,38.828z M28.322,38.987
			c0.062,0.001,0.118,0.002,0.177,0.002c0.062,0,0.121-0.001,0.18-0.002c-0.052-0.159-0.11-0.313-0.18-0.467
			C28.436,38.674,28.374,38.828,28.322,38.987z M32.78,36.688c-0.26-0.21-0.505-0.443-0.734-0.691
			c-0.572,0.978-1.552,1.695-2.709,1.933c0.171,0.29,0.317,0.592,0.444,0.899c0.476-0.12,0.925-0.308,1.337-0.552l0.291,0.395
			c-0.94,0.928-1.082,2.412-0.274,3.503c0.896,1.212,2.622,1.483,3.856,0.602c1.231-0.88,1.506-2.576,0.609-3.788
			c-0.808-1.091-2.289-1.417-3.479-0.826l-0.289-0.395C32.197,37.453,32.517,37.091,32.78,36.688z M23.094,24.779
			c0.511-2.475,2.738-4.336,5.405-4.336c3.05,0,5.522,2.427,5.522,5.423c0,2.052-1.16,3.838-2.872,4.76
			c-0.036,0.205-0.059,0.416-0.069,0.628c2.688-1.021,4.596-3.58,4.596-6.583c0-3.893-3.21-7.048-7.177-7.048
			c-3.762,0-6.847,2.846-7.149,6.465c0.137,0.038,0.271,0.076,0.408,0.119C22.229,24.358,22.675,24.55,23.094,24.779z
			 M23.076,26.869c-0.256-0.132-0.527-0.244-0.812-0.335c-0.243-0.077-0.488-0.136-0.731-0.177c0.768,3.08,3.595,5.365,6.966,5.365
			c0.566,0,1.117-0.065,1.646-0.186c-0.011-0.163-0.014-0.328-0.013-0.49c-0.517,0.157-1.063,0.242-1.634,0.242
			C25.801,31.289,23.553,29.386,23.076,26.869z M44.356,28.938c-1.163-3.517-4.873-5.52-8.47-4.683
			c0.006,0.137,0.01,0.275,0.01,0.415c0,0.489-0.049,0.967-0.142,1.426c2.554-0.286,5.044,1.219,5.87,3.714
			c0.941,2.849-0.646,5.908-3.545,6.834c-1.985,0.636-4.073,0.102-5.493-1.214c-0.211,0.032-0.421,0.074-0.629,0.13
			c1.816,2.198,4.885,3.189,7.79,2.262C43.517,36.62,45.579,32.642,44.356,28.938z M33.728,26.728
			c0.047-0.279,0.071-0.568,0.071-0.861c0-0.252-0.018-0.5-0.054-0.74c-2.743,1.671-4.081,5.019-3.039,8.171
			c0.174,0.528,0.407,1.022,0.688,1.479c0.155-0.062,0.312-0.115,0.47-0.162c-0.311-0.434-0.562-0.921-0.737-1.452
			C30.292,30.64,31.44,27.953,33.728,26.728z M37.155,36.635c0.286-0.039,0.574-0.106,0.857-0.197
			c0.243-0.077,0.477-0.17,0.701-0.279c-2.466-2.047-6.12-2.264-8.851-0.315c-0.457,0.327-0.864,0.697-1.219,1.101
			c0.106,0.125,0.207,0.256,0.303,0.388c0.323-0.426,0.717-0.808,1.176-1.137C32.307,34.636,35.264,34.876,37.155,36.635z
			 M39.815,38.03c-0.473,0.149-0.947,0.25-1.422,0.306c1.066,2.298,0.379,5.09-1.781,6.633c-2.465,1.762-5.918,1.224-7.709-1.2
			c-1.228-1.658-1.359-3.773-0.526-5.509c-0.095-0.188-0.202-0.368-0.32-0.547c-1.564,2.377-1.575,5.551,0.218,7.978
			c2.331,3.149,6.817,3.848,10.026,1.559c3.044-2.173,3.837-6.257,1.915-9.361C40.084,37.938,39.951,37.984,39.815,38.03z
			 M27.36,44.581c-1.896,1.71-4.811,1.932-6.972,0.388c-2.466-1.761-3.013-5.152-1.22-7.575c1.228-1.658,3.235-2.437,5.17-2.192
			c0.154-0.146,0.296-0.302,0.431-0.47c-2.784-0.728-5.859,0.244-7.655,2.67c-2.329,3.151-1.618,7.559,1.588,9.848
			c3.046,2.173,7.246,1.655,9.655-1.101c-0.09-0.106-0.177-0.216-0.259-0.331C27.807,45.423,27.56,45.009,27.36,44.581z
			 M29.565,44.209c1.223-2.937,0.302-6.418-2.428-8.366c-0.456-0.326-0.941-0.592-1.44-0.799c-0.092,0.138-0.186,0.272-0.284,0.403
			c0.513,0.169,1.008,0.418,1.465,0.747c2.187,1.558,2.863,4.396,1.746,6.708c0.13,0.253,0.28,0.501,0.457,0.738
			C29.23,43.844,29.395,44.036,29.565,44.209z M16.937,37.274c0.292-0.395,0.617-0.751,0.967-1.069
			c-2.236-1.242-3.352-3.899-2.526-6.395c0.94-2.849,4.057-4.406,6.955-3.481c1.987,0.633,3.357,2.269,3.72,4.155
			c0.188,0.096,0.386,0.182,0.586,0.257c-0.153-2.827-2.046-5.401-4.95-6.327c-3.767-1.205-7.815,0.821-9.041,4.524
			c-1.163,3.517,0.637,7.279,4.049,8.68C16.772,37.504,16.854,37.39,16.937,37.274z M19.921,36.866
			c-0.204,0.199-0.398,0.417-0.571,0.654c-0.152,0.203-0.285,0.414-0.4,0.63c3.218,0.233,6.304-1.701,7.348-4.854
			c0.172-0.528,0.282-1.062,0.328-1.594c-0.163-0.042-0.321-0.088-0.477-0.141c-0.01,0.53-0.097,1.069-0.271,1.6
			C25.04,35.685,22.506,37.196,19.921,36.866z"/>
	</g>
</g>
</svg>
