<?xml version="1.0" encoding="utf-8"?>
<!-- Generator: Adobe Illustrator 16.0.0, SVG Export Plug-In . SVG Version: 6.00 Build 0)  -->
<!DOCTYPE svg PUBLIC "-//W3C//DTD SVG 1.1//EN" "http://www.w3.org/Graphics/SVG/1.1/DTD/svg11.dtd">
<svg version="1.1" id="レイヤー_1" xmlns="http://www.w3.org/2000/svg" xmlns:xlink="http://www.w3.org/1999/xlink" x="0px"
	 y="0px" width="13px" height="13px" viewBox="0 0 13 13" enable-background="new 0 0 13 13" xml:space="preserve">
<g display="none">
	<circle display="inline" fill="none" stroke="#797979" stroke-miterlimit="10" cx="6.5" cy="6.5" r="6.5"/>
	<path display="inline" fill="none" stroke="#797979" stroke-miterlimit="10" d="M6.5,1C9.532,1,12,3.467,12,6.5
		C12,9.532,9.532,12,6.5,12C3.467,12,1,9.532,1,6.5C1,3.467,3.467,1,6.5,1 M6.5,0C2.91,0,0,2.91,0,6.5S2.91,13,6.5,13
		S13,10.09,13,6.5S10.09,0,6.5,0L6.5,0z"/>
</g>
<polygon fill="#797979" points="9,8.207 6.984,6.453 7,3 6,3 6,7 8.293,8.914 "/>
<path fill="#797979" d="M6.5,1C9.532,1,12,3.467,12,6.5C12,9.532,9.532,12,6.5,12C3.467,12,1,9.532,1,6.5C1,3.467,3.467,1,6.5,1
	 M6.5,0C2.91,0,0,2.91,0,6.5S2.91,13,6.5,13S13,10.09,13,6.5S10.09,0,6.5,0L6.5,0z"/>
</svg>
