<?xml version="1.0" encoding="utf-8"?>
<!-- Generator: Adobe Illustrator 16.0.0, SVG Export Plug-In . SVG Version: 6.00 Build 0)  -->
<!DOCTYPE svg PUBLIC "-//W3C//DTD SVG 1.1//EN" "http://www.w3.org/Graphics/SVG/1.1/DTD/svg11.dtd">
<svg version="1.1" id="レイヤー_1" xmlns="http://www.w3.org/2000/svg" xmlns:xlink="http://www.w3.org/1999/xlink" x="0px"
	 y="0px" width="16px" height="18px" viewBox="0 0 16 18" enable-background="new 0 0 16 18" xml:space="preserve">
<g id="長方形_30">
	<g>
		<path fill="#757575" d="M5,6h2c0.553,0,1-0.447,1-1c0-0.552-0.447-1-1-1H5C4.447,4,4,4.448,4,5C4,5.553,4.447,6,5,6z M5,10h6
			c0.553,0,1-0.447,1-1s-0.447-1-1-1H5C4.447,8,4,8.447,4,9S4.447,10,5,10z M5,14h6c0.553,0,1-0.447,1-1s-0.447-1-1-1H5
			c-0.553,0-1,0.447-1,1S4.447,14,5,14z M15,0H1C0.447,0,0,0.448,0,1v16c0,0.553,0.447,1,1,1h14c0.553,0,1-0.447,1-1V1
			C16,0.448,15.553,0,15,0z M14,16H2V2h12V16z"/>
	</g>
</g>
</svg>
