<?xml version="1.0" encoding="utf-8"?>
<!-- Generator: Adobe Illustrator 16.0.0, SVG Export Plug-In . SVG Version: 6.00 Build 0)  -->
<!DOCTYPE svg PUBLIC "-//W3C//DTD SVG 1.1//EN" "http://www.w3.org/Graphics/SVG/1.1/DTD/svg11.dtd">
<svg version="1.1" id="レイヤー_1" xmlns="http://www.w3.org/2000/svg" xmlns:xlink="http://www.w3.org/1999/xlink" x="0px"
	 y="0px" width="9px" height="12px" viewBox="0 0 9 12" enable-background="new 0 0 9 12" xml:space="preserve">
<g display="none">
	<circle display="inline" fill="none" stroke="#797979" stroke-miterlimit="10" cx="2.5" cy="6.5" r="6.5"/>
	<path display="inline" fill="none" stroke="#797979" stroke-miterlimit="10" d="M2.5,1C5.532,1,8,3.467,8,6.5
		C8,9.532,5.532,12,2.5,12C-0.533,12-3,9.532-3,6.5C-3,3.467-0.533,1,2.5,1 M2.5,0C-1.09,0-4,2.91-4,6.5S-1.09,13,2.5,13
		S9,10.09,9,6.5S6.09,0,2.5,0L2.5,0z"/>
</g>
<path fill="#797979" d="M0,0v12h9V0H0z M8,11H1V1h4v3h3V11z"/>
</svg>
