<?xml version="1.0" encoding="utf-8"?>
<!-- Generator: Adobe Illustrator 16.2.1, SVG Export Plug-In . SVG Version: 6.00 Build 0)  -->
<!DOCTYPE svg PUBLIC "-//W3C//DTD SVG 1.1//EN" "http://www.w3.org/Graphics/SVG/1.1/DTD/svg11.dtd">
<svg version="1.1" id="Layer_1" xmlns="http://www.w3.org/2000/svg" xmlns:xlink="http://www.w3.org/1999/xlink" x="0px" y="0px"
	 width="100px" height="36px" viewBox="0 33.5 100 36" enable-background="new 0 33.5 100 36" xml:space="preserve">
<path d="M81.98,45h-3.963c-2.316-3-6.207-5.616-10.611-5.616c-4.402,0-8.293,2.616-10.609,5.616H46.21
	c-2.315-3-6.206-5.616-10.608-5.616C31.197,39.384,27.307,42,24.99,45h-4.857c-1.24,0-2.244,1.261-2.244,2.5
	c0,1.238,1.004,2.5,2.244,2.5h2.923c-0.193,1-0.302,1.7-0.302,2.643c0,7.082,5.764,12.797,12.848,12.797
	c7.082,0,12.846-5.689,12.846-12.772c0-0.94-0.109-1.667-0.303-2.667h6.716c-0.192,1-0.301,1.7-0.301,2.643
	c0,7.082,5.765,12.797,12.847,12.797c7.084,0,12.848-5.689,12.848-12.772c0-0.94-0.108-1.667-0.302-2.667h2.027
	c1.24,0,2.244-1.262,2.244-2.5C84.225,46.261,83.221,45,81.98,45z M35.602,60.898c-4.61,0-8.359-3.748-8.359-8.357
	c0-4.61,3.749-8.359,8.359-8.359c4.607,0,8.357,3.749,8.357,8.359C43.959,57.15,40.209,60.898,35.602,60.898z M67.406,60.898
	c-4.609,0-8.357-3.748-8.357-8.357c0-4.61,3.748-8.359,8.357-8.359s8.359,3.749,8.359,8.359
	C75.766,57.15,72.018,60.898,67.406,60.898z"/>
</svg>
