<?xml version="1.0" encoding="utf-8"?>
<!-- Generator: Adobe Illustrator 16.2.1, SVG Export Plug-In . SVG Version: 6.00 Build 0)  -->
<!DOCTYPE svg PUBLIC "-//W3C//DTD SVG 1.1//EN" "http://www.w3.org/Graphics/SVG/1.1/DTD/svg11.dtd">
<svg version="1.1" id="Layer_9" xmlns="http://www.w3.org/2000/svg" xmlns:xlink="http://www.w3.org/1999/xlink" x="0px" y="0px"
	 width="100px" height="100px" viewBox="0 0 100 100" enable-background="new 0 0 100 100" xml:space="preserve">
<path d="M58.84,21.01H40.76c2.119-9.029,5.381-14.822,9.041-14.822C53.461,6.188,56.723,11.98,58.84,21.01z M47.518,72.463
	c0,0-7.672,10.008,1.5,21.35c0,0-4.148-9.444,0.543-12.697c0,0,3.941-1.312,4.253,2.689c0,0,3.252-6.342,0-11.346L47.518,72.463z
	 M68.221,55.502c-1.9-3.258-4.201-5.973-6.582-7.951c0.146-2.031,0.223-4.129,0.223-6.275c0-2.299-0.096-4.531-0.262-6.693
	c-0.494,0.477-1.164,0.771-1.906,0.771c-1.52,0-2.752-1.232-2.752-2.752V29.6c0-1.52,1.232-2.752,2.752-2.752
	c0.341,0,0.666,0.064,0.968,0.178c-0.281-1.578-0.604-3.092-0.972-4.514H40.35c-1.365,5.303-2.172,11.771-2.172,18.764
	c0,2.137,0.078,4.223,0.221,6.246c-2.395,1.98-4.709,4.707-6.619,7.98c-5.084,8.711-5.385,18.004-0.67,20.754l9.309-15.953
	c1.186,4.502,3.131,8.135,5.107,10.492h8.992c1.969-2.35,3.906-5.965,5.092-10.447l9.283,15.908
	C73.605,73.506,73.305,64.213,68.221,55.502z"/>
</svg>
