<?xml version="1.0" encoding="utf-8"?>
<!-- Generator: Adobe Illustrator 16.0.0, SVG Export Plug-In . SVG Version: 6.00 Build 0)  -->
<!DOCTYPE svg PUBLIC "-//W3C//DTD SVG 1.1//EN" "http://www.w3.org/Graphics/SVG/1.1/DTD/svg11.dtd">
<svg version="1.1" id="レイヤー_1" xmlns="http://www.w3.org/2000/svg" xmlns:xlink="http://www.w3.org/1999/xlink" x="0px"
	 y="0px" width="450px" height="450px" viewBox="0 0 450 450" enable-background="new 0 0 450 450" xml:space="preserve">
<path fill-rule="evenodd" clip-rule="evenodd" fill="none" stroke="#000000" stroke-width="2" stroke-linecap="round" stroke-linejoin="round" stroke-miterlimit="10" d="
	M236.787,170.568c-4.93-2.045-9.86-4.09-12.441-5.16c-4.813-7.649-9.307-13.458-12.053-19.718
	c-8.224-18.747-13.32-23.008-33.01-26.008c-7.369-1.123-39.658,3.626-39.658,3.626c-13.88,7.271-14.409,6.438-27.593,14.807
	c-10.42,6.614-25.624,22.538-33.355,33.97c-2.681,2.526-4.027,12.402-5.602,16.265c-7.188,17.635-8.381,20.357-14.715,38.395
	c-7.403,21.082-9.231,57.996-8.216,63.27c1.317,7.932,10.243,27.611,18.167,39.139c12.622,18.359,25.594,36.484,38.744,54.471
	c1.55,2.121,7.044,5.498,9.687,6.82"/>
<path fill-rule="evenodd" clip-rule="evenodd" fill="none" stroke="#000000" stroke-width="2" stroke-linecap="round" stroke-linejoin="round" stroke-miterlimit="10" d="
	M118.804,381.346c-4.957,3.564-1.388,10.389-2.061,11c6.355,4.369,10.148,9.629,17.014,10.691
	c20.441,3.164,37.846,14.238,57.371,19.555c12.967,3.533,25.302,3.863,38.28,2.176c9.266-1.389,20.667-5.422,31.247-6.66
	c9.694-1.135,18.357-3.258,26.657-7.682c15.011-8,30.377-15.566,44.444-25.023c9.363-6.293,17.202-15.125,24.888-23.582
	c11.977-13.178,23.413-26.859,34.749-40.6c7.645-9.268,10.676-20.238,13.755-31.963c2.943-11.209,5.497-21.939,5.104-33.424
	c-0.034-1-0.621-1.984-0.952-2.975"/>
<path fill-rule="evenodd" clip-rule="evenodd" fill="none" stroke="#000000" stroke-width="2" stroke-linecap="round" stroke-linejoin="round" stroke-miterlimit="10" d="
	M409.3,251.867c6.52-10.381,0.825-21.162,0.859-31.727c0.064-19.346-4.149-38.219-10.099-56.41
	c-3.958-12.109-11.116-23.146-16.49-34.826c-7.106-15.45-18.208-27.827-31.078-38.283c-4.068-3.306-11.603-2.344-17.552-3.335"/>
<path fill-rule="evenodd" clip-rule="evenodd" fill="none" stroke="#000000" stroke-width="2" stroke-linecap="round" stroke-linejoin="round" stroke-miterlimit="10" d="
	M308.172,360.928c11.565-10.576,23.938-20.416,34.472-31.936c10.304-11.268,19.675-23.68,27.577-36.725
	c3.724-6.145,3.737-14.912,4.192-22.564c0.49-8.213-0.407-16.518-0.821-24.775c-0.599-11.9-1.307-23.796-1.968-35.693"/>
<path fill-rule="evenodd" clip-rule="evenodd" fill="none" stroke="#000000" stroke-width="2" stroke-linecap="round" stroke-linejoin="round" stroke-miterlimit="10" d="
	M231.83,358.945c-24.229-14.096-51.753-14.484-78.891-18.443c-7.492-17.805-15.213-35.344-28.049-50.086
	c-3.974-4.563-7.26-8.9-14.018-7.813"/>
<path fill-rule="evenodd" clip-rule="evenodd" fill="none" stroke="#000000" stroke-width="2" stroke-linecap="round" stroke-linejoin="round" stroke-miterlimit="10" d="
	M253.642,388.688c-15.863,0.662-31.75,2.123-47.58,1.672c-8.974-0.256-18.115-2.889-26.721-5.807
	c-14.752-5.002-29.142-11.066-43.682-16.686"/>
<path fill-rule="evenodd" clip-rule="evenodd" fill="none" stroke="#000000" stroke-width="2" stroke-linecap="round" stroke-linejoin="round" stroke-miterlimit="10" d="
	M179.283,140.683c-5.289,0.331-16.168-0.473-21.073,1.073c-9.159,2.884-13.206,4.375-21.438,9.191
	c-15.942,9.329-33.148,17.821-40.621,36.537c-1.685,4.218-0.69,1.276-1.351,5.904"/>
<path fill-rule="evenodd" clip-rule="evenodd" fill="none" stroke="#000000" stroke-width="2" stroke-linecap="round" stroke-linejoin="round" stroke-miterlimit="10" d="
	M346.838,86.294c-4.438-11.082-14.983-15.51-23.803-21.802c-13.736-9.804-28.136-18.442-44.645-22.666
	c-3.878-0.992-8.226-0.147-12.355-0.147"/>
<path fill-rule="evenodd" clip-rule="evenodd" fill="none" stroke="#000000" stroke-width="2" stroke-linecap="round" stroke-linejoin="round" stroke-miterlimit="10" d="
	M132.075,365.678c-9.118-1.775-9.688-7.752-12.247-11.711c-13.444-20.809-25.555-42.338-34.733-65.416"/>
<path fill-rule="evenodd" clip-rule="evenodd" fill="none" stroke="#000000" stroke-width="2" stroke-linecap="round" stroke-linejoin="round" stroke-miterlimit="10" d="
	M219.933,60.517c-22.041,3.485-44.345,6.004-64.426,16.891c-4.428,2.4-8.61,5.251-12.908,7.896"/>
<path fill-rule="evenodd" clip-rule="evenodd" fill="none" stroke="#000000" stroke-width="2" stroke-linecap="round" stroke-linejoin="round" stroke-miterlimit="10" d="
	M80.138,280.619c-0.341-16.275-4.425-32.592,2.774-48.67c3.771-8.419,5.488-17.757,8.132-26.68"/>
<path fill-rule="evenodd" clip-rule="evenodd" fill="none" stroke="#000000" stroke-width="2" stroke-linecap="round" stroke-linejoin="round" stroke-miterlimit="10" d="
	M118.804,281.611c7.264-21.592,9.596-43.822,7.649-66.404c-0.271-3.15-4.344-5.973-6.657-8.947"/>
<path fill-rule="evenodd" clip-rule="evenodd" fill="none" stroke="#000000" stroke-width="2" stroke-linecap="round" stroke-linejoin="round" stroke-miterlimit="10" d="
	M195.146,176.517c-1.323,1.983-2.644,3.966-4.15,6.225c-4.533-2.06-8.944-4.755-13.733-6.092c-8.83-2.465-15.537,3.19-21.642,7.969
	c-10.398,8.14-19.962,17.346-29.877,26.103"/>
<path fill-rule="evenodd" clip-rule="evenodd" fill="none" stroke="#000000" stroke-width="2" stroke-linecap="round" stroke-linejoin="round" stroke-miterlimit="10" d="
	M329.983,207.252c-0.331,1.321-0.914,2.636-0.953,3.967c-0.393,13.878-0.942,27.762-0.885,41.639
	c0.018,4.311,1.749,8.613,2.734,13.096c-11.77,13.373-23.915,26.715-35.497,40.529c-5.532,6.598-11.657,13.227-11.998,22.719"/>
<path fill-rule="evenodd" clip-rule="evenodd" fill="none" stroke="#000000" stroke-width="2" stroke-linecap="round" stroke-linejoin="round" stroke-miterlimit="10" d="
	M287.351,331.184c-8.923,1.652-18.237,2.211-26.67,5.232c-10.654,3.816-20.625,9.566-30.793,14.678
	c-1.454,0.732-2.354,2.563-3.511,3.885"/>
<path fill-rule="evenodd" clip-rule="evenodd" fill="none" stroke="#000000" stroke-width="2" stroke-linecap="round" stroke-linejoin="round" stroke-miterlimit="10" d="
	M223.898,166.602c1.909,9.929,8.442,18.61,6.212,29.796c-1.698,8.519-9.036,18.513-13.561,18.513
	c-3.808-1.562-17.628-21.033-26.361-31.454"/>
<path fill-rule="evenodd" clip-rule="evenodd" fill="none" stroke="#000000" stroke-width="2" stroke-linecap="round" stroke-linejoin="round" stroke-miterlimit="10" d="
	M350.804,160.653c-3.966-14.304-5.789-19.998-11.729-27.761c-5.227-6.831-10.083-17.516-16.031-23.795"/>
<path fill-rule="evenodd" clip-rule="evenodd" fill="none" stroke="#000000" stroke-width="2" stroke-linecap="round" stroke-linejoin="round" stroke-miterlimit="10" d="
	M253.642,100.175c-14.211,11.485-28.421,11.134-41.546,0.327c-18.869,4.235-40.547,0.9-57.192,10.188l-5-0.127
	c-4.443-1.063-3.869,1.766-8.099-1.524c-4.252-8.997-9.055-19.163-13.365-28.287c5.27-6.053,11.524-10.502,13.686-16.441
	c2.506-6.882,7.428-9.715,12.244-13.857c13.313-11.454,29.942-12.418,45.78-14.333c14.984-1.812,30.361-0.554,45.561-0.328
	c9.388,0.139,17.817,2.945,23.795,10.845"/>
<path fill-rule="evenodd" clip-rule="evenodd" fill="none" stroke="#000000" stroke-width="2" stroke-linecap="round" stroke-linejoin="round" stroke-miterlimit="10" d="
	M340.89,207.252c-9.706,1.993-15.855-2.781-19.771-10.933c-4.866-10.13-9.312-20.463-13.938-30.708"/>
<path fill-rule="evenodd" clip-rule="evenodd" fill="none" stroke="#000000" stroke-width="2" stroke-linecap="round" stroke-linejoin="round" stroke-miterlimit="10" d="
	M317.095,104.141c-10.575-6.279-21.121-12.61-31.746-18.806c-3.184-1.858-6.59-3.336-9.896-4.989"/>
<path fill-rule="evenodd" clip-rule="evenodd" fill="none" stroke="#000000" stroke-width="2" stroke-linecap="round" stroke-linejoin="round" stroke-miterlimit="10" d="
	M267.521,74.397c-13.549-4.296-27.1-8.593-40.648-12.889"/>
<path fill-rule="evenodd" clip-rule="evenodd" fill="none" stroke="#000000" stroke-width="2" stroke-linecap="round" stroke-linejoin="round" stroke-miterlimit="10" d="
	M300.24,363.902c-11.536,10.531-25.05,17.617-39.658,22.803"/>
<path fill-rule="evenodd" clip-rule="evenodd" fill="none" stroke="#000000" stroke-width="2" stroke-linecap="round" stroke-linejoin="round" stroke-miterlimit="10" d="
	M323.043,163.628c-4.651,0.358-9.305,0.716-13.955,1.075c-0.425,0.81-0.849,1.622-1.274,2.432
	c-7.151-6.457-14.171-13.068-21.495-19.323c-6.08-5.19-11.827-11.674-18.949-14.54c-12.396-4.989-20.058-14.256-27.607-24.175"/>
<path fill-rule="evenodd" clip-rule="evenodd" fill="none" stroke="#000000" stroke-width="2" stroke-linecap="round" stroke-linejoin="round" stroke-miterlimit="10" d="
	M370.074,202.294c-4.333-15.637-8.148-24.614-16.296-36.684"/>
<path fill-rule="evenodd" clip-rule="evenodd" fill="none" stroke="#000000" stroke-width="2" stroke-linecap="round" stroke-linejoin="round" stroke-miterlimit="10" d="
	M205.408,160.653c-6.94-4.627-15.22-13.219-22.159-17.846"/>
<path fill-rule="evenodd" clip-rule="evenodd" fill="none" stroke="#000000" stroke-width="2" stroke-linecap="round" stroke-linejoin="round" stroke-miterlimit="10" d="
	M219.933,206.26c4.157-15.504,0-22.308-10.906-43.624"/>
<path fill-rule="evenodd" clip-rule="evenodd" fill="none" stroke="#000000" stroke-width="2" stroke-linecap="round" stroke-linejoin="round" stroke-miterlimit="10" d="
	M283.385,126.944c-5.121,1.983-10.245,3.966-15.367,5.949"/>
<path fill-rule="evenodd" clip-rule="evenodd" fill="none" stroke="#000000" stroke-width="2" stroke-linecap="round" stroke-linejoin="round" stroke-miterlimit="10" d="
	M138.633,403.561c-0.991-0.992-2.924-13.189-1.591-16.855"/>
</svg>
